<?xml version="1.0" encoding="utf-8"?>
<!-- Generator: Adobe Illustrator 26.3.1, SVG Export Plug-In . SVG Version: 6.00 Build 0)  -->
<svg version="1.1" id="Layer_1" xmlns="http://www.w3.org/2000/svg" xmlns:xlink="http://www.w3.org/1999/xlink" x="0px" y="0px"
	 width="440px" height="50px" viewBox="0 0 440 50" style="enable-background:new 0 0 440 50;" xml:space="preserve">
<style type="text/css">
	.st0{fill:#FFDC00;}
</style>
<g>
	<path class="st0" d="M52.4,28.4c-0.4,2.6-1,4.4-1.9,5.5c-0.9,1.1-2.5,1.6-4.7,1.6c-2.1,0-3.6-0.6-4.5-1.6c-0.8-1.1-1.4-2.9-1.7-5.5
		l-1.6-13c-0.2-1.3-0.2-1.4-0.8-1.4s-0.6,0.2-0.8,1.4l-1.6,13c-0.3,2.6-0.9,4.4-1.7,5.5c-0.8,1.1-2.3,1.6-4.5,1.6
		c-2.2,0-3.8-0.6-4.7-1.6c-0.9-1.1-1.5-2.9-1.9-5.5L20,11.6c-0.2-1.8,0.2-2.3,2-2.3h0.8c1.8,0,2.3,0.4,2.6,2.3l2,16.7
		c0.3,1.9,0.5,2.4,1.3,2.4c0.8,0,1.1-0.5,1.4-2.4L32,14.9c0.3-2.1,0.8-3.6,1.5-4.3c0.8-0.8,2-1.2,3.8-1.2c1.8,0,3,0.4,3.7,1.2
		c0.8,0.8,1.3,2.2,1.5,4.3l1.8,13.5c0.3,1.9,0.6,2.4,1.4,2.4c0.8,0,1.1-0.4,1.3-2.4l2-16.7c0.3-1.9,0.8-2.3,2.6-2.3h0.8
		c1.9,0,2.2,0.5,2,2.3L52.4,28.4z"/>
	<path class="st0" d="M74.9,24.9c-0.2,1.8-0.7,2.2-2.6,2.2H62.3v0.6c0,2.1,1.5,3,5.2,3c1.4,0,3-0.2,4.8-0.6c1.7-0.4,2.1,0,2.1,1.9
		v0.4c0,1.7-0.4,2.1-2.1,2.6c-1.3,0.4-2.9,0.5-4.8,0.5c-7.1,0-10.3-2.7-10.3-8.7v-3.2c0-5.9,3.1-8.9,9.2-8.9c5.8,0,8.7,2.9,8.7,8.6
		C75,23.8,75,24.3,74.9,24.9z M62.3,22.9h7.8v-0.6c0-2-1.3-3-3.9-3c-2.6,0-3.9,1-3.9,3V22.9z"/>
	<path class="st0" d="M78.1,9.6c0-1.8,0.4-2.2,2.2-2.2H81c1.8,0,2.2,0.4,2.2,2.2V28c0,2,0.5,2.7,1.7,2.7h0.2c1.1,0,1.3,0.3,1.3,1.8
		v0.8c0,1.6-0.3,2-1.3,2.2c-0.4,0-0.8,0.1-1.2,0.1c-3.7,0-5.9-2.1-5.9-6.4V9.6z"/>
	<path class="st0" d="M88.1,23.3c0-5.3,3.4-8.5,9.5-8.5c1,0,1.8,0.1,2.6,0.3c1.7,0.4,2.1,0.9,2.1,2.7v0.4c0,1.8-0.5,2.1-2.1,1.8
		c-0.7-0.2-1.5-0.3-2.5-0.3c-3.2,0-4.4,0.9-4.4,3.7v3.6c0,2.8,1.3,3.8,4.7,3.8c0.8,0,1.6-0.1,2.4-0.2c1.7-0.3,2.2,0,2.2,1.8v0.4
		c0,1.8-0.4,2.3-2.2,2.6c-0.8,0.2-1.6,0.3-2.7,0.3c-6.5,0-9.7-2.8-9.7-8.5V23.3z"/>
	<path class="st0" d="M104.3,26.8v-3.2c0-5.7,3.3-8.8,9.5-8.8c6.5,0,9.4,2.9,9.4,8.8v3.2c0,5.7-3.2,8.8-9.4,8.8
		C107.4,35.6,104.3,32.7,104.3,26.8z M118.1,23.6c0-2.9-1-3.9-4.2-3.9s-4.3,1.1-4.3,3.9v3.2c0,2.8,1,3.9,4.3,3.9s4.2-1.1,4.2-3.9
		V23.6z"/>
	<path class="st0" d="M131.5,32.9c0,1.8-0.4,2.2-2.2,2.2h-0.8c-1.8,0-2.2-0.4-2.2-2.2V22.8c0-2.6,0.7-4.6,2.1-5.9
		c1.5-1.4,3.6-2.1,6.3-2.1c2.8,0,4.7,0.8,5.9,2.5c1.2-1.7,3.2-2.5,5.8-2.5c5.7,0,8.4,2.6,8.4,8v10.1c0,1.8-0.4,2.2-2.2,2.2h-0.8
		c-1.8,0-2.2-0.4-2.2-2.2V22.8c0-2.3-0.7-3.1-3.2-3.1c-2.7,0-3.4,0.8-3.4,3.1v10.1c0,1.8-0.4,2.2-2.2,2.2h-0.6
		c-1.8,0-2.2-0.4-2.2-2.2V22.8c0-2.3-0.7-3.1-3.3-3.1c-2.5,0-3.3,0.9-3.3,3.1V32.9z"/>
	<path class="st0" d="M175.8,24.9c-0.2,1.8-0.7,2.2-2.6,2.2h-10.1v0.6c0,2.1,1.5,3,5.2,3c1.4,0,3-0.2,4.8-0.6c1.7-0.4,2.1,0,2.1,1.9
		v0.4c0,1.7-0.4,2.1-2.1,2.6c-1.3,0.4-2.9,0.5-4.8,0.5c-7.1,0-10.3-2.7-10.3-8.7v-3.2c0-5.9,3.1-8.9,9.2-8.9c5.8,0,8.7,2.9,8.7,8.6
		C175.9,23.8,175.9,24.3,175.8,24.9z M163.2,22.9h7.8v-0.6c0-2-1.3-3-3.9-3c-2.6,0-3.9,1-3.9,3V22.9z"/>
	<path class="st0" d="M179.8,32.5c0-1.7,1.4-3.1,3.1-3.1c1.7,0,3.1,1.4,3.1,3.1s-1.4,3.1-3.1,3.1C181.2,35.6,179.8,34.2,179.8,32.5z
		 M183.1,9.3c1.9,0,2.3,0.5,2.3,2.3v5.9c0,3.4-0.2,6.1-0.6,8.1c-0.2,1.1-0.6,1.4-1.7,1.4h-0.4c-1.1,0-1.4-0.3-1.7-1.4
		c-0.4-2-0.6-4.7-0.6-8.1v-5.9c0-1.8,0.4-2.3,2.3-2.3H183.1z"/>
	<path d="M198.2,31.7c0-1.9,0.6-2.3,2.3-1.9c2.1,0.5,4.1,0.8,6,0.8c3.2,0,4.3-0.6,4.3-2.1c0-1.1-0.6-1.8-3.2-3.2l-5.1-3
		c-2.7-1.5-4-3.8-4-6.7c0-4.5,2.9-6.7,9.2-6.7c1.9,0,3.5,0.2,5,0.6c1.9,0.5,2.3,1,2.3,2.8v0.4c0,1.9-0.5,2.3-2.3,1.8
		c-1.3-0.4-3-0.6-5-0.6c-2.7,0-3.8,0.4-3.8,1.9c0,1,0.5,1.5,2.2,2.5l5.3,3.1c3.4,2,4.8,3.9,4.8,7.2c0,4.8-3,7.1-9.9,7.1
		c-2.3,0-4.2-0.2-6-0.8c-1.9-0.5-2.3-1-2.3-2.7V31.7z"/>
	<path d="M217.5,18c0-1.6,0.4-2.1,1.9-2.4l1.6-0.4l0.5-3.1c0.2-1.6,0.7-2,2.4-2h0.2c1.7,0,2.1,0.4,2.1,2.1v3.1h4.5
		c1.8,0,2.2,0.4,2.2,2.2v0.4c0,1.8-0.4,2.2-2.2,2.2h-4.5V28c0,1.8,0.8,2.7,2.5,2.7c1.1,0,2-0.1,2.8-0.2c1.8-0.3,2.2-0.1,2.2,1.6v0.4
		c0,1.8-0.5,2.5-2.2,2.8c-0.7,0.2-1.6,0.2-2.8,0.2c-5.1,0-7.6-2.5-7.6-7.6v-7.8h-1.6c-1.6,0-2-0.4-2-2V18z"/>
	<path d="M252,29.2c0,4.3-2.7,6.4-8.6,6.4s-8.6-2-8.6-6.3c0-4.1,2.7-6.2,8-6.2h4v-1.5c0-1.9-1.3-2.4-4.1-2.4c-1.1,0-2.3,0.1-3.4,0.2
		c-1.7,0.3-2.2-0.1-2.2-1.9v-0.2c0-1.7,0.4-2.1,2.1-2.4c1.1-0.1,2.2-0.2,3.2-0.2c6.4,0,9.6,2,9.6,6.8V29.2z M246.8,27h-4.1
		c-1.9,0-2.8,0.7-2.8,2.2c0.2,1.7,1.1,2.1,3.4,2.1c2.3,0,3.4-0.4,3.5-2.3V27z"/>
	<path d="M260.2,32.9c0,1.8-0.4,2.2-2.2,2.2h-0.8c-1.8,0-2.2-0.4-2.2-2.2V22c0-4.7,2.9-7.2,8.2-7.2h0.4c1.5,0,2,0.6,2,2.5v0.4
		c0,1.7-0.4,2-2,1.9h-0.4c-2.4,0-3.1,0.7-3.1,2.7V32.9z"/>
	<path d="M267.1,18c0-1.6,0.4-2.1,1.9-2.4l1.6-0.4l0.5-3.1c0.2-1.6,0.7-2,2.4-2h0.2c1.7,0,2.1,0.4,2.1,2.1v3.1h4.5
		c1.8,0,2.2,0.4,2.2,2.2v0.4c0,1.8-0.4,2.2-2.2,2.2h-4.5V28c0,1.8,0.8,2.7,2.5,2.7c1.1,0,2-0.1,2.8-0.2c1.8-0.3,2.2-0.1,2.2,1.6v0.4
		c0,1.8-0.5,2.5-2.2,2.8c-0.7,0.2-1.6,0.2-2.8,0.2c-5.1,0-7.6-2.5-7.6-7.6v-7.8h-1.6c-1.6,0-2-0.4-2-2V18z"/>
	<path d="M311.3,24.9c-0.2,1.8-0.7,2.2-2.6,2.2h-10.1v0.6c0,2.1,1.5,3,5.2,3c1.4,0,3-0.2,4.8-0.6c1.7-0.4,2.1,0,2.1,1.9v0.4
		c0,1.7-0.4,2.1-2.1,2.6c-1.3,0.4-2.9,0.5-4.8,0.5c-7.1,0-10.3-2.7-10.3-8.7v-3.2c0-5.9,3.1-8.9,9.2-8.9c5.8,0,8.7,2.9,8.7,8.6
		C311.4,23.8,311.3,24.3,311.3,24.9z M298.7,22.9h7.8v-0.6c0-2-1.3-3-3.9-3c-2.6,0-3.9,1-3.9,3V22.9z"/>
	<path d="M333,26.9c0,5.7-3.6,8.7-9.4,8.7c-6.3,0-9.5-2.9-9.5-8.7v-3.2c0-5.7,2.9-8.9,8.3-8.9c2.5,0,4.3,0.8,5.4,2.3V9.6
		c0-1.8,0.4-2.2,2.2-2.2h0.7c1.8,0,2.2,0.4,2.2,2.2V26.9z M319.3,26.8c0,2.9,0.9,3.9,4.2,3.9c3.3,0,4.3-1.1,4.3-3.9v-3.2
		c0-2.8-1-3.9-4.3-3.9c-3.3,0-4.2,1.1-4.2,3.9V26.8z"/>
	<path d="M336.3,9.3c0-1.7,1.4-3.1,3.1-3.1s3.1,1.4,3.1,3.1c0,1.7-1.4,3.1-3.1,3.1S336.3,11.1,336.3,9.3z M336.8,17.5
		c0-1.8,0.4-2.2,2.2-2.2h0.7c1.8,0,2.2,0.4,2.2,2.2v15.4c0,1.8-0.4,2.2-2.2,2.2h-0.7c-1.8,0-2.2-0.4-2.2-2.2V17.5z"/>
	<path d="M344.5,18c0-1.6,0.4-2.1,1.9-2.4l1.6-0.4l0.5-3.1c0.2-1.6,0.7-2,2.4-2h0.2c1.7,0,2.1,0.4,2.1,2.1v3.1h4.5
		c1.8,0,2.2,0.4,2.2,2.2v0.4c0,1.8-0.4,2.2-2.2,2.2h-4.5V28c0,1.8,0.8,2.7,2.5,2.7c1.1,0,2-0.1,2.8-0.2c1.8-0.3,2.2-0.1,2.2,1.6v0.4
		c0,1.8-0.5,2.5-2.2,2.8c-0.7,0.2-1.6,0.2-2.8,0.2c-5.1,0-7.6-2.5-7.6-7.6v-7.8h-1.6c-1.6,0-2-0.4-2-2V18z"/>
	<path d="M362.6,9.3c0-1.7,1.4-3.1,3.1-3.1c1.7,0,3.1,1.4,3.1,3.1c0,1.7-1.4,3.1-3.1,3.1C364,12.4,362.6,11.1,362.6,9.3z
		 M363.2,17.5c0-1.8,0.4-2.2,2.2-2.2h0.7c1.8,0,2.2,0.4,2.2,2.2v15.4c0,1.8-0.4,2.2-2.2,2.2h-0.7c-1.8,0-2.2-0.4-2.2-2.2V17.5z"/>
	<path d="M377.4,32.9c0,1.8-0.4,2.2-2.2,2.2h-0.8c-1.8,0-2.2-0.4-2.2-2.2V22.8c0-5.2,3.1-8,9-8c6.1,0,9,2.6,9,8v10.1
		c0,1.8-0.4,2.2-2.2,2.2h-0.8c-1.8,0-2.2-0.4-2.2-2.2V22.8c0-2.3-0.8-3.1-3.8-3.1c-3,0-3.8,0.9-3.8,3.1V32.9z"/>
	<path d="M411.2,22.3c0,4.9-3,7.4-8.9,7.4c-3.1,0-3.8,0.2-3.8,1c0,0.8,0.7,0.9,3.8,0.9c3.6,0,6.1,0.4,7.4,1.3c1.3,0.9,2,2.4,2,4.7
		c0,2.3-0.7,3.9-2,4.8c-1.4,0.9-3.8,1.4-7.4,1.4c-3.6,0-6.1-0.4-7.5-1.3c-1.3-0.8-2-2.2-2-4c0-1.7,0.7-3,2-3.8
		c-0.9-0.6-1.4-1.6-1.4-2.9c0-1.8,1-3,3.1-3.7c-2-1.1-3.1-3.1-3.1-5.8V22c0-4.6,3.3-7.2,9-7.2c1.3,0,2.4,0.2,3.5,0.5l2.3-1.7
		c1.3-1,1.9-1,3.1,0.2l0.1,0.1c1.1,1.1,1.2,1.6,0.1,2.8l-1.4,1.6c0.8,1,1.2,2.2,1.2,3.7V22.3z M399,35.9c-0.7,0.3-1.1,0.9-1.1,1.8
		c0,0.8,0.3,1.2,0.8,1.4c0.6,0.2,1.7,0.3,3.6,0.3c1.5,0,2.5-0.1,3.2-0.2c0.8-0.2,1.1-0.7,1.1-1.5c0-0.8-0.3-1.2-0.8-1.4
		c-0.6-0.2-1.7-0.3-3.4-0.3C401.1,36,400,35.9,399,35.9z M406,22c0-1.9-1-2.7-3.7-2.7c-2.7,0-3.8,0.9-3.8,2.7v0.2c0,2,1,2.9,3.8,2.9
		c2.7,0,3.7-0.9,3.7-2.9V22z"/>
	<path d="M413.8,32.5c0-1.7,1.4-3.1,3.1-3.1c1.7,0,3.1,1.4,3.1,3.1s-1.4,3.1-3.1,3.1C415.2,35.6,413.8,34.2,413.8,32.5z"/>
</g>
</svg>
