<svg id="Group_3353" data-name="Group 3353" xmlns="http://www.w3.org/2000/svg" xmlns:xlink="http://www.w3.org/1999/xlink" width="156.652" height="156.637" viewBox="0 0 156.652 156.637">
  <defs>
    <clipPath id="clip-path">
      <rect id="Rectangle_516" data-name="Rectangle 516" width="156.652" height="156.637" fill="none"/>
    </clipPath>
  </defs>
  <g id="Group_3352" data-name="Group 3352" clip-path="url(#clip-path)">
    <path id="Path_11494" data-name="Path 11494" d="M37.08,110.375,32.466,97.209a3.154,3.154,0,0,1-.165-.962,2.836,2.836,0,0,1,2.83-2.83h86.39a2.836,2.836,0,0,1,2.832,2.83,3.109,3.109,0,0,1-.167.962l-4.612,13.166a2.834,2.834,0,0,1-2.676,1.913H39.756a2.833,2.833,0,0,1-2.676-1.913m0-24.532L32.466,72.677a3.171,3.171,0,0,1-.165-.964,2.837,2.837,0,0,1,2.83-2.83h86.39a2.837,2.837,0,0,1,2.832,2.83,3.126,3.126,0,0,1-.167.964l-4.612,13.166a2.835,2.835,0,0,1-2.676,1.912H39.756a2.833,2.833,0,0,1-2.676-1.912m0-24.534L32.466,48.143a3.17,3.17,0,0,1-.165-.962,2.837,2.837,0,0,1,2.83-2.832h86.39a2.838,2.838,0,0,1,2.832,2.832,3.125,3.125,0,0,1-.167.962l-4.612,13.166a2.834,2.834,0,0,1-2.676,1.913H39.756a2.833,2.833,0,0,1-2.676-1.913M78.326,14.155A64.164,64.164,0,1,1,14.155,78.319,64.291,64.291,0,0,1,78.326,14.155M78.326,0A78.318,78.318,0,1,1,0,78.319,78.473,78.473,0,0,1,78.326,0" transform="translate(0 0.001)" fill="#ffd400" fill-rule="evenodd"/>
  </g>
</svg>
